<svg xmlns="http://www.w3.org/2000/svg" xmlns:xlink="http://www.w3.org/1999/xlink" width="1080" zoomAndPan="magnify" viewBox="0 0 810 809.999993" height="1080" preserveAspectRatio="xMidYMid meet" version="1.0"><defs><clipPath id="829b977d55"><path d="M 296.535156 222.800781 L 340.09375 222.800781 L 340.09375 256.996094 L 296.535156 256.996094 Z M 296.535156 222.800781 " clip-rule="nonzero"/></clipPath><clipPath id="31394be3cc"><path d="M 116.242188 368 L 693.742188 368 L 693.742188 442 L 116.242188 442 Z M 116.242188 368 " clip-rule="nonzero"/></clipPath><clipPath id="c48641f8a3"><path d="M 116.242188 537 L 693.742188 537 L 693.742188 609.84375 L 116.242188 609.84375 Z M 116.242188 537 " clip-rule="nonzero"/></clipPath><clipPath id="2627153c9c"><path d="M 116.242188 200.34375 L 693.742188 200.34375 L 693.742188 273 L 116.242188 273 Z M 116.242188 200.34375 " clip-rule="nonzero"/></clipPath></defs><g clip-path="url(#829b977d55)"><path fill="#222222" d="M 296.535156 222.800781 L 340.078125 222.800781 L 340.078125 256.996094 L 296.535156 256.996094 Z M 296.535156 222.800781 " fill-opacity="1" fill-rule="nonzero"/></g><g clip-path="url(#31394be3cc)"><path fill="#000000" d="M 657.648438 368.980469 L 152.335938 368.980469 C 132.402344 368.980469 116.242188 385.148438 116.242188 405.09375 C 116.242188 425.039062 132.402344 441.207031 152.335938 441.207031 L 657.648438 441.207031 C 677.585938 441.207031 693.742188 425.039062 693.742188 405.09375 C 693.742188 385.148438 677.585938 368.980469 657.648438 368.980469 Z M 657.648438 368.980469 " fill-opacity="1" fill-rule="nonzero"/></g><g clip-path="url(#c48641f8a3)"><path fill="#000000" d="M 657.648438 537.503906 L 152.335938 537.503906 C 132.402344 537.503906 116.242188 553.671875 116.242188 573.617188 C 116.242188 593.5625 132.402344 609.730469 152.335938 609.730469 L 657.648438 609.730469 C 677.585938 609.730469 693.742188 593.5625 693.742188 573.617188 C 693.742188 553.671875 677.585938 537.503906 657.648438 537.503906 Z M 657.648438 537.503906 " fill-opacity="1" fill-rule="nonzero"/></g><g clip-path="url(#2627153c9c)"><path fill="#000000" d="M 152.335938 272.683594 L 657.648438 272.683594 C 677.585938 272.683594 693.742188 256.515625 693.742188 236.570312 C 693.742188 216.625 677.585938 200.460938 657.648438 200.460938 L 152.335938 200.460938 C 132.402344 200.460938 116.242188 216.625 116.242188 236.570312 C 116.242188 256.515625 132.402344 272.683594 152.335938 272.683594 Z M 152.335938 272.683594 " fill-opacity="1" fill-rule="nonzero"/></g></svg>